<svg xmlns="http://www.w3.org/2000/svg" viewBox="0 0 800 600" fill="none">
  <defs>
    <linearGradient id="imageGradient" x1="80" y1="60" x2="720" y2="540" gradientUnits="userSpaceOnUse">
      <stop stop-color="#FFF7ED"/>
      <stop offset="0.55" stop-color="#FDE68A"/>
      <stop offset="1" stop-color="#FDBA74"/>
    </linearGradient>
  </defs>
  <rect width="800" height="600" rx="40" fill="url(#imageGradient)"/>
  <circle cx="600" cy="170" r="58" fill="#FFF7ED" fill-opacity="0.95"/>
  <path d="M140 470l122-138a30 30 0 0 1 43 0l92 104 72-81a30 30 0 0 1 43 0l148 166H140Z" fill="#F59E0B" fill-opacity="0.34"/>
  <path d="M188 470l150-170a30 30 0 0 1 44 0l116 132 94-106a30 30 0 0 1 43 0l113 144H188Z" fill="#EA580C" fill-opacity="0.38"/>
  <rect x="188" y="150" width="424" height="300" rx="28" stroke="#F59E0B" stroke-opacity="0.28" stroke-width="18"/>
</svg>
